<?xml version="1.0" encoding="UTF-8"?>
<svg id="_레이어_1" data-name="레이어_1" xmlns="http://www.w3.org/2000/svg" version="1.1" viewBox="0 0 197.94 45.6">
  <!-- Generator: Adobe Illustrator 30.5.1, SVG Export Plug-In . SVG Version: 2.1.4 Build 3)  -->
  <defs>
    <style>
      .st0 {
        fill: #fff;
      }
    </style>
  </defs>
  <path class="st0" d="M98.23,17.62h-2.54l-1.09,3.79h1.4c3.13.15,3.56-3.79,2.23-3.79"/>
  <path class="st0" d="M59.46,17.58h-2.54l-1.91,6.02h1.31c2.59.1,2.71-1.06,2.71-1.06l1.28-3.92c.16-.48.06-1.02-.85-1.04"/>
  <path class="st0" d="M190.94,18.87h-5.05l-4.65,14.9h-9.56l4.65-14.9h-5.2l2.38-7.26h19.82l-2.38,7.26ZM155.52,33.77l-1.35-7.64-.84-.72-2.12,8.36h-8.15l6.75-21.97h8.5c0,.08,1.58,10.15,1.59,10.24,0,0,.83.59.83.59l3.32-10.83h8.15l-6.75,21.97h-9.94ZM124.61,33.84l6.78-22.04h17.04l-1.79,5.82h-8.9l-.7,2.29h8.85l-1.79,5.82h-8.85l-.7,2.29h8.9l-1.79,5.82h-17.04ZM113.49,34.83c-3.46,0-6.23-1.15-7.61-3.15-.87-1.27-1.09-2.78-.63-4.26l3.94-12.28c1.11-3.53,5.34-3.99,10.65-3.99,3.46,0,6.45.23,8.31,2.6,1.02,1.31.78,1.99.32,3.46l-1.63,4.56h-7.89l1.57-4.42s-1.78-.05-1.79-.05c-1.57.01-1.75-.17-1.98.51l-3.49,9.68s-.41,1.16,1.06,1.18c1.73.02,2.48-.02,2.48-.02l1.13-2.92h7.94l-1.91,5.66c-.87,3.43-5.16,3.43-10.46,3.43M102.13,33.87h-7.34c1.22-3.85,1.75-5.81-.9-5.89h-1.37l-1.8,5.86h-8.15l6.78-22.04h9.55c3.29,0,6.07.86,7.39,2.67,1.64,2.24.15,6.03.15,6.03-.48,1.56-2.5,4.87-4.6,5.93,1.63,1.48,2.69,2.18.29,7.45M64.47,33.88l6.78-22.04h17.04l-1.79,5.82h-8.9l-.7,2.29h8.85l-1.79,5.82h-8.85l-.7,2.29h8.9l-1.79,5.82h-17.04ZM53.17,29.79l-1.23,4.01h-8.15l6.78-22.04h9.55c3.29,0,6.07,1.06,7.44,2.85.88,1.14,1.14,2.5.73,3.83l-1.76,5.73c-.97,3.15-5.72,5.63-10.81,5.63h-2.54ZM33.03,33.74c-3.51-.02-6.48.01-7.94-1.88-.92-1.2-1.09-2.32-.63-3.74l4.97-16.36h7.78l-4.52,14.7s-.58,1.34,1,1.47c2.11.17,2.82-.77,2.95-1.19l4.6-14.97,8.17-.08-5.75,18.03c-1.14,3.51-5.27,4.07-10.63,4.04M23.12,29.54c-.79,1.78-2.51,3.51-5.63,4.33,0,0-5.21,1.26-12.98-.47l2.54-6.59,6.4.85s2.04.12,1.72-1.32c0,0-.06-.68-1.81-.98,0,0-6.65-.71-5.08-8.18,0,0,.96-7.59,19.26-6.02l-1.91,6.26-7.58.55s-1.37-.09-1.35.84c0,0-.28.74.94,1,0,0,5.16,1.04,5.86,4.16,0,0,.81,2.86-.39,5.59M186.18,8.27l2.83-8.27H21.95l-2.58,7.74c-12.26,1.03-14.1,7.35-14.36,8.81-.59,2.9-.2,5.1.48,6.67l-.59-.08L0,35.81l3.79.84c2.05.46,3.95.72,5.64.86l-2.7,8.09h166.69l2.9-8.49h7.38l4.65-14.9h5.01l4.58-13.94h-11.76Z"/>
</svg>